<svg xmlns="http://www.w3.org/2000/svg" xmlns:xlink="http://www.w3.org/1999/xlink" viewBox="0 0 340.869 100.632">
  <defs>
    <style>
      .cls-1, .cls-2, .cls-4, .cls-5, .cls-6, .cls-7, .cls-8 {
        fill: none;
      }

      .cls-2, .cls-4, .cls-5, .cls-6, .cls-7, .cls-8 {
        stroke: aqua;
        stroke-linecap: round;
        stroke-miterlimit: 10;
      }

      .cls-2, .cls-4, .cls-5, .cls-6, .cls-7 {
        stroke-width: 0.979px;
      }

      .cls-3 {
        clip-path: url(#clip-path);
      }

      .cls-4 {
        stroke-dasharray: 6.678 6.678;
      }

      .cls-5 {
        stroke-dasharray: 6.791 6.791;
      }

      .cls-6 {
        stroke-dasharray: 5.402 5.402;
      }

      .cls-7 {
        stroke-dasharray: 6.211 6.211;
      }

      .cls-8 {
        stroke-width: 0.69px;
      }

      .cls-9 {
        clip-path: url(#clip-path-3);
      }

      .cls-10 {
        clip-path: url(#clip-path-4);
      }
    </style>
    <clipPath id="clip-path">
      <rect id="Rectangle_12" data-name="Rectangle 12" class="cls-1" width="167.2" height="77.4" transform="translate(-104.8 -38.7)"/>
    </clipPath>
    <clipPath id="clip-path-3">
      <rect id="Rectangle_17" data-name="Rectangle 17" class="cls-1" width="53.2" height="26" transform="translate(-29.7 -15.2)"/>
    </clipPath>
    <clipPath id="clip-path-4">
      <rect id="Rectangle_18" data-name="Rectangle 18" class="cls-1" width="53.2" height="26" transform="translate(-29.7 -10.8)"/>
    </clipPath>
  </defs>
  <g id="Group_67" data-name="Group 67" transform="translate(-818.685 -179.615)">
    <path id="Path_42" data-name="Path 42" class="cls-2" d="M1024,254.8H954.5a17.669,17.669,0,0,1-17.7-17.7h0a17.669,17.669,0,0,1,17.7-17.7H1024a17.669,17.669,0,0,1,17.7,17.7h0A17.669,17.669,0,0,1,1024,254.8Z"/>
    <g id="XMLID_2_" class="cls-3" transform="translate(1097.154 218.315)">
      <line id="Line_17" data-name="Line 17" class="cls-2" x1="81.2" transform="translate(-19.3 4.7)"/>
      <rect id="Rectangle_10" data-name="Rectangle 10" class="cls-2" width="14.2" height="33.5" transform="translate(28.306 38.182) rotate(180)"/>
      <line id="Line_18" data-name="Line 18" class="cls-2" x1="70.8" y1="11.4" transform="translate(-56.6 25)"/>
      <g id="Group_45" data-name="Group 45">
        <g id="Group_44" data-name="Group 44">
          <line id="Line_19" data-name="Line 19" class="cls-2" x1="3.2" y1="0.5" transform="translate(11 35.9)"/>
          <line id="Line_20" data-name="Line 20" class="cls-4" x1="102.2" y1="16.5" transform="translate(-97.8 18.3)"/>
          <line id="Line_21" data-name="Line 21" class="cls-2" x1="3.2" y1="0.5" transform="translate(-104.3 17.3)"/>
        </g>
      </g>
      <g id="Group_52" data-name="Group 52">
        <g id="Group_47" data-name="Group 47">
          <g id="Group_46" data-name="Group 46">
            <line id="Line_22" data-name="Line 22" class="cls-2" x1="3.2" transform="translate(16.1 -38.2)"/>
            <line id="Line_23" data-name="Line 23" class="cls-5" x1="64.5" transform="translate(-55.2 -38.2)"/>
            <line id="Line_24" data-name="Line 24" class="cls-2" x1="3.3" transform="translate(-61.9 -38.2)"/>
          </g>
        </g>
        <g id="Group_49" data-name="Group 49">
          <g id="Group_48" data-name="Group 48">
            <path id="Path_43" data-name="Path 43" class="cls-2" d="M-28.3-7.9v3.2h3.2"/>
            <path id="Path_44" data-name="Path 44" class="cls-2" d="M-17.4-4.7h3.2V-7.9"/>
            <line id="Line_25" data-name="Line 25" class="cls-6" y1="18.9" transform="translate(-14.2 -32.2)"/>
            <path id="Path_45" data-name="Path 45" class="cls-2" d="M-14.2-34.9v-3.3h-3.2"/>
            <path id="Path_46" data-name="Path 46" class="cls-2" d="M-25.1-38.2h-3.2v3.3"/>
            <line id="Line_26" data-name="Line 26" class="cls-6" y2="18.9" transform="translate(-28.3 -29.5)"/>
          </g>
        </g>
        <g id="Group_51" data-name="Group 51">
          <g id="Group_50" data-name="Group 50">
            <line id="Line_27" data-name="Line 27" class="cls-2" x1="3.1" y2="0.8" transform="translate(-23 -4.7)"/>
            <line id="Line_28" data-name="Line 28" class="cls-7" x1="69.1" y2="18" transform="translate(-98.2 -2.3)"/>
            <line id="Line_29" data-name="Line 29" class="cls-2" x1="3.1" y2="0.8" transform="translate(-104.3 16.5)"/>
          </g>
        </g>
      </g>
      <g id="Group_53" data-name="Group 53">
        <line id="Line_30" data-name="Line 30" class="cls-2" x1="81.2" transform="translate(-61.9 -38.2)"/>
        <rect id="Rectangle_11" data-name="Rectangle 11" class="cls-2" width="14.2" height="33.5" transform="translate(-14.206 -4.682) rotate(180)"/>
        <line id="Line_31" data-name="Line 31" class="cls-2" x1="41.1" y2="10.7" transform="translate(-61 -4.7)"/>
      </g>
    </g>
    <g id="Group_64" data-name="Group 64" class="cls-3" transform="translate(881.085 218.315) rotate(180)">
      <line id="Line_32" data-name="Line 32" class="cls-2" x1="81.2" transform="translate(-19.3 -4.7)"/>
      <rect id="Rectangle_13" data-name="Rectangle 13" class="cls-2" width="14.2" height="33.5" transform="translate(28.306 -4.682) rotate(180)"/>
      <line id="Line_33" data-name="Line 33" class="cls-2" x1="70.8" y2="11.4" transform="translate(-56.6 -36.4)"/>
      <g id="Group_55" data-name="Group 55">
        <g id="Group_54" data-name="Group 54">
          <line id="Line_34" data-name="Line 34" class="cls-2" x1="3.2" y2="0.5" transform="translate(11 -36.4)"/>
          <line id="Line_35" data-name="Line 35" class="cls-4" x1="102.2" y2="16.5" transform="translate(-97.8 -34.8)"/>
          <line id="Line_36" data-name="Line 36" class="cls-2" x1="3.2" y2="0.5" transform="translate(-104.3 -17.8)"/>
        </g>
      </g>
      <g id="Group_62" data-name="Group 62">
        <g id="Group_57" data-name="Group 57">
          <g id="Group_56" data-name="Group 56">
            <line id="Line_37" data-name="Line 37" class="cls-2" x1="3.2" transform="translate(16.1 38.2)"/>
            <line id="Line_38" data-name="Line 38" class="cls-5" x1="64.5" transform="translate(-55.2 38.2)"/>
            <line id="Line_39" data-name="Line 39" class="cls-2" x1="3.3" transform="translate(-61.9 38.2)"/>
          </g>
        </g>
        <g id="Group_59" data-name="Group 59">
          <g id="Group_58" data-name="Group 58">
            <path id="Path_47" data-name="Path 47" class="cls-2" d="M-28.3,7.9V4.7h3.2"/>
            <path id="Path_48" data-name="Path 48" class="cls-2" d="M-17.4,4.7h3.2V7.9"/>
            <line id="Line_40" data-name="Line 40" class="cls-6" y2="18.9" transform="translate(-14.2 13.3)"/>
            <path id="Path_49" data-name="Path 49" class="cls-2" d="M-14.2,34.9v3.3h-3.2"/>
            <path id="Path_50" data-name="Path 50" class="cls-2" d="M-25.1,38.2h-3.2V34.9"/>
            <line id="Line_41" data-name="Line 41" class="cls-6" y1="18.9" transform="translate(-28.3 10.6)"/>
          </g>
        </g>
        <g id="Group_61" data-name="Group 61">
          <g id="Group_60" data-name="Group 60">
            <line id="Line_42" data-name="Line 42" class="cls-2" x1="3.1" y1="0.8" transform="translate(-23 3.9)"/>
            <line id="Line_43" data-name="Line 43" class="cls-7" x1="69.1" y1="18" transform="translate(-98.2 -15.7)"/>
            <line id="Line_44" data-name="Line 44" class="cls-2" x1="3.1" y1="0.8" transform="translate(-104.3 -17.3)"/>
          </g>
        </g>
      </g>
      <g id="Group_63" data-name="Group 63">
        <line id="Line_45" data-name="Line 45" class="cls-2" x1="81.2" transform="translate(-61.9 38.2)"/>
        <rect id="Rectangle_14" data-name="Rectangle 14" class="cls-2" width="14.2" height="33.5" transform="translate(-14.206 38.182) rotate(180)"/>
        <line id="Line_46" data-name="Line 46" class="cls-2" x1="41.1" y1="10.7" transform="translate(-61 -6)"/>
      </g>
    </g>
    <g id="Group_66" data-name="Group 66">
      <rect id="Rectangle_16" data-name="Rectangle 16" class="cls-8" width="24" height="9.8" transform="translate(977.2 254.8)"/>
      <g id="XMLID_1_" class="cls-9" transform="translate(1039.741 269.447)">
        <line id="Line_47" data-name="Line 47" class="cls-2" x2="38.4" y2="23.2" transform="translate(-15.3 -14.6)"/>
        <line id="Line_48" data-name="Line 48" class="cls-2" x2="11.9" y2="25" transform="translate(-29.2 -14.7)"/>
      </g>
      <g id="Group_65" data-name="Group 65" class="cls-10" transform="translate(938.727 269.447) rotate(180)">
        <line id="Line_49" data-name="Line 49" class="cls-2" y1="23.2" x2="38.4" transform="translate(-15.3 -8.6)"/>
        <line id="Line_50" data-name="Line 50" class="cls-2" y1="25" x2="11.9" transform="translate(-29.2 -10.3)"/>
      </g>
    </g>
  </g>
</svg>
