<?xml version="1.0" encoding="utf-8"?>
<!-- Generator: Adobe Illustrator 22.1.0, SVG Export Plug-In . SVG Version: 6.00 Build 0)  -->
<svg version="1.1" id="Layer_1" xmlns="http://www.w3.org/2000/svg" xmlns:xlink="http://www.w3.org/1999/xlink" x="0px" y="0px"
	 viewBox="0 0 118.8 48.7" style="enable-background:new 0 0 118.8 48.7;" xml:space="preserve">
<style type="text/css">
	.st0{fill:#FFFFFF;stroke:#FFFFFF;stroke-width:0.5;}
	.st1{fill:#00FFFF;stroke:#00FFFF;stroke-width:0.5;}
</style>
<g id="Group_2212" transform="translate(-111.45 -201.75)">
	<path id="Path_2" class="st0" d="M229.4,202.6v47H128v-47H229.4 M230,202H127.5v48.2H230L230,202L230,202z"/>
	<g id="Group_14" transform="translate(138.701 211.638)">
		<path id="Path_7" class="st1" d="M7.5,1C9.1,2.5,9.2,5,7.7,6.5C7.7,6.6,7.6,6.7,7.5,6.7c-1,0.7-2.2,1.1-3.4,1.1H0.8v3.8H0V0h4.1
			C5.3-0.1,6.6,0.3,7.5,1z M6.9,6.2c0.7-0.6,1-1.4,1-2.3c0-0.9-0.3-1.7-1-2.3C6.1,0.9,5.1,0.6,4.1,0.7H0.8V7h3.3
			C5.1,7.1,6.1,6.8,6.9,6.2z"/>
	</g>
	<g id="Group_15" transform="translate(156.89 211.638)">
		<path id="Path_8" class="st1" d="M8,10.8v0.8H0V0h7.7v0.8H0.9v4.5H7V6H0.9v4.7L8,10.8L8,10.8z"/>
	</g>
	<g id="Group_20" transform="translate(174.703 211.638)">
		<path id="Path_13" class="st1" d="M8,10.8v0.8H0V0h7.7v0.8H0.9v4.5H7V6H0.9v4.7L8,10.8L8,10.8z"/>
	</g>
	<g id="Group_21" transform="translate(192.066 211.638)">
		<path id="Path_14" class="st1" d="M8,11.6L5.3,7.7c-0.4,0-0.8,0.1-1.1,0.1H0.8v3.8H0V0h4.1c1.2-0.1,2.4,0.3,3.4,1.1
			c0.8,0.7,1.3,1.8,1.2,2.9c0,0.8-0.2,1.6-0.7,2.3c-0.5,0.7-1.2,1.1-2,1.3L9,11.6H8z M4.1,7c1,0.1,2-0.2,2.8-0.8
			c1.3-1.3,1.3-3.3,0-4.6c0,0,0,0,0,0C6.1,0.9,5.1,0.6,4.1,0.7H0.8V7L4.1,7L4.1,7z"/>
	</g>
	<g id="Group_22" transform="translate(209.73 211.638)">
		<path id="Path_15" class="st0" d="M4.2,0.8H0V0h9.1v0.8H5v10.8H4.2L4.2,0.8z"/>
	</g>
	<g id="Group_23" transform="translate(137.089 228.889)">
		<path id="Path_16" class="st0" d="M2.9,11C1.1,9.9,0,8,0,5.9c0-1.1,0.3-2.1,0.8-3C1.3,2,2,1.2,2.9,0.8C3.9,0.2,4.9,0,6,0
			c1.1,0,2.1,0.3,3.1,0.8C10,1.2,10.7,2,11.2,2.9c1.7,2.8,0.7,6.4-2,8c0,0-0.1,0-0.1,0.1c-0.9,0.5-2,0.8-3.1,0.8
			C4.9,11.7,3.9,11.4,2.9,11z M8.6,10.3c0.8-0.4,1.4-1.1,1.8-1.8c0.5-0.8,0.7-1.7,0.7-2.6c0-0.9-0.2-1.8-0.7-2.6
			C10,2.5,9.4,1.9,8.6,1.4C6.2-0.1,3,0.7,1.6,3.1C1.1,4,0.8,4.9,0.8,5.8c0,1.8,0.9,3.5,2.6,4.4C5,11.2,7,11.2,8.6,10.3L8.6,10.3z"/>
	</g>
	<g id="Group_30" transform="translate(156.515 228.998)">
		<path id="Path_23" class="st1" d="M7.5,1C9.1,2.5,9.2,5,7.7,6.5C7.7,6.6,7.6,6.7,7.5,6.7c-1,0.7-2.2,1.1-3.4,1H0.8v3.8H0V0h4.1
			C5.3-0.1,6.6,0.3,7.5,1z M6.9,6.2c0.7-0.6,1-1.4,1-2.3c0-0.9-0.3-1.7-1-2.3C6.1,0.9,5.1,0.6,4.1,0.7H0.8v6.3h3.3
			C5.1,7,6.1,6.8,6.9,6.2z"/>
	</g>
	<g id="Group_31" transform="translate(174.703 228.964)">
		<path id="Path_24" class="st1" d="M8,10.8v0.8H0V0h7.7v0.8H0.9v4.5H7V6H0.9v4.7L8,10.8L8,10.8z"/>
	</g>
	<g id="Group_32" transform="translate(192.516 228.964)">
		<path id="Path_25" class="st1" d="M8,10.8v0.8H0V0h7.7v0.8H0.9v4.5H7V6H0.9v4.7L8,10.8L8,10.8z"/>
	</g>
	<g id="Group_33" transform="translate(209.88 228.964)">
		<path id="Path_26" class="st1" d="M8,11.6L5.2,7.7c-0.4,0-0.8,0.1-1.1,0.1H0.8v3.8H0V0h4.1c1.2-0.1,2.4,0.3,3.4,1
			c0.8,0.7,1.3,1.8,1.2,2.9c0,0.8-0.2,1.6-0.7,2.3c-0.5,0.7-1.2,1.1-2,1.3l2.9,4L8,11.6z M4.1,7c1,0.1,2-0.2,2.8-0.8
			c1.3-1.3,1.3-3.3,0-4.6c0,0,0,0,0,0C6.1,0.9,5.1,0.6,4.1,0.7H0.8V7L4.1,7L4.1,7z"/>
	</g>
	<g id="Group_36" transform="translate(111.7 202)">
		<path id="Path_29" class="st0" d="M0,48.1v-3.5c0-0.9,0.2-1.7,0.6-2.5c1.1-2.1,3.8-3,5.9-1.8c0.8,0.4,1.4,1.1,1.8,1.8
			c0.4,0.8,0.6,1.6,0.6,2.5v3.5H0z M8.3,44.7c0-0.8-0.1-1.5-0.5-2.2c-0.3-0.6-0.8-1.1-1.3-1.5c-0.6-0.4-1.3-0.5-2-0.5
			c-0.7,0-1.4,0.2-2,0.5c-0.6,0.3-1.1,0.8-1.3,1.5c-0.3,0.7-0.5,1.4-0.5,2.2v2.8h7.7L8.3,44.7z"/>
		<path id="Path_30" class="st0" d="M8.9,31.1l-3,2.1C6,33.6,6,33.8,6,34.1v2.5H9v0.6H0v-3.2c-0.1-0.9,0.2-1.9,0.8-2.6
			c0.6-0.6,1.4-1,2.2-0.9c0.6,0,1.2,0.2,1.8,0.5c0.5,0.4,0.9,0.9,1,1.5l3.1-2.2L8.9,31.1z M5.4,34.1c0-0.8-0.2-1.5-0.6-2.2
			c-0.5-0.5-1.1-0.8-1.8-0.8c-0.7,0-1.3,0.2-1.8,0.8c-0.5,0.6-0.7,1.4-0.6,2.2v2.5h4.8L5.4,34.1L5.4,34.1z"/>
		<path id="Path_31" class="st0" d="M8.4,26.4c-0.4,0.7-0.9,1.3-1.6,1.6c-0.7,0.4-1.5,0.6-2.3,0.6c-0.8,0-1.6-0.2-2.3-0.6
			c-0.7-0.4-1.2-1-1.6-1.6c-0.8-1.5-0.8-3.3,0-4.7C1,21,1.5,20.4,2.2,20c0.7-0.4,1.5-0.6,2.3-0.6c0.8,0,1.6,0.2,2.3,0.6
			c0.7,0.4,1.2,1,1.6,1.6c0.4,0.7,0.6,1.5,0.6,2.4C9,24.9,8.8,25.7,8.4,26.4z M7.9,22c-0.3-0.6-0.8-1.1-1.4-1.4
			c-0.6-0.3-1.3-0.5-2-0.5c-0.7,0-1.4,0.2-2,0.5C1.9,20.9,1.4,21.4,1,22c-0.7,1.3-0.7,2.8,0,4c0.3,0.6,0.8,1.1,1.4,1.4
			c0.6,0.3,1.3,0.5,2,0.5c0.7,0,1.4-0.2,2-0.5c0.6-0.3,1.1-0.8,1.4-1.4C8.6,24.8,8.6,23.3,7.9,22z"/>
		<path id="Path_32" class="st0" d="M0,9.6h8.9v0.5l-7.7,6.1h7.7v0.6H0v-0.6l7.7-6.1H0V9.6z"/>
		<path id="Path_33" class="st0" d="M8.3,0h0.6v6.1H0v-6h0.6v5.3h3.5V0.8h0.6v4.8h3.6L8.3,0z"/>
	</g>
</g>
</svg>
