<?xml version="1.0" encoding="utf-8"?>
<!-- Generator: Adobe Illustrator 22.1.0, SVG Export Plug-In . SVG Version: 6.00 Build 0)  -->
<svg version="1.1" id="Layer_1" xmlns="http://www.w3.org/2000/svg" xmlns:xlink="http://www.w3.org/1999/xlink" x="0px" y="0px"
	 viewBox="0 0 118.8 48.7" style="enable-background:new 0 0 118.8 48.7;" xml:space="preserve">
<style type="text/css">
	.st0{fill:#FF00FF;stroke:#FF00FF;stroke-width:0.5;}
</style>
<g id="Group_2212" transform="translate(-111.45 -201.75)">
	<g id="Group_14" transform="translate(138.701 211.638)">
		<path id="Path_7" class="st0" d="M7.5,1c1.6,1.5,1.7,4,0.2,5.5c0,0.1-0.1,0.2-0.2,0.2c-1,0.7-2.2,1.1-3.4,1.1H0.8v3.8H0V0h4.1
			C5.3-0.1,6.6,0.3,7.5,1z M6.9,6.2c0.7-0.6,1-1.4,1-2.3s-0.3-1.7-1-2.3c-0.8-0.7-1.8-1-2.8-0.9H0.8V7h3.3C5.1,7.1,6.1,6.8,6.9,6.2z
			"/>
	</g>
	<g id="Group_15" transform="translate(156.89 211.638)">
		<path id="Path_8" class="st0" d="M8,10.8v0.8H0V0h7.7v0.8H0.9v4.5H7V6H0.9v4.7L8,10.8L8,10.8z"/>
	</g>
	<g id="Group_20" transform="translate(174.703 211.638)">
		<path id="Path_13" class="st0" d="M8,10.8v0.8H0V0h7.7v0.8H0.9v4.5H7V6H0.9v4.7L8,10.8L8,10.8z"/>
	</g>
	<g id="Group_21" transform="translate(192.066 211.638)">
		<path id="Path_14" class="st0" d="M8,11.6L5.3,7.7c-0.4,0-0.8,0.1-1.1,0.1H0.8v3.8H0V0h4.1c1.2-0.1,2.4,0.3,3.4,1.1
			C8.3,1.8,8.8,2.9,8.7,4c0,0.8-0.2,1.6-0.7,2.3S6.8,7.4,6,7.6l3,4H8z M4.1,7c1,0.1,2-0.2,2.8-0.8c1.3-1.3,1.3-3.3,0-4.6l0,0
			c-0.8-0.7-1.8-1-2.8-0.9H0.8V7H4.1L4.1,7z"/>
	</g>
	<g id="Group_30" transform="translate(156.515 228.998)">
		<path id="Path_23" class="st0" d="M7.5,1c1.6,1.5,1.7,4,0.2,5.5c0,0.1-0.1,0.2-0.2,0.2c-1,0.7-2.2,1.1-3.4,1H0.8v3.8H0V0h4.1
			C5.3-0.1,6.6,0.3,7.5,1z M6.9,6.2c0.7-0.6,1-1.4,1-2.3s-0.3-1.7-1-2.3c-0.8-0.7-1.8-1-2.8-0.9H0.8V7h3.3C5.1,7,6.1,6.8,6.9,6.2z"
			/>
	</g>
	<g id="Group_31" transform="translate(174.703 228.964)">
		<path id="Path_24" class="st0" d="M8,10.8v0.8H0V0h7.7v0.8H0.9v4.5H7V6H0.9v4.7L8,10.8L8,10.8z"/>
	</g>
	<g id="Group_32" transform="translate(192.516 228.964)">
		<path id="Path_25" class="st0" d="M8,10.8v0.8H0V0h7.7v0.8H0.9v4.5H7V6H0.9v4.7L8,10.8L8,10.8z"/>
	</g>
	<g id="Group_33" transform="translate(209.88 228.964)">
		<path id="Path_26" class="st0" d="M8,11.6L5.2,7.7c-0.4,0-0.8,0.1-1.1,0.1H0.8v3.8H0V0h4.1c1.2-0.1,2.4,0.3,3.4,1
			c0.8,0.7,1.3,1.8,1.2,2.9c0,0.8-0.2,1.6-0.7,2.3S6.8,7.3,6,7.5l2.9,4L8,11.6z M4.1,7c1,0.1,2-0.2,2.8-0.8c1.3-1.3,1.3-3.3,0-4.6
			l0,0c-0.8-0.7-1.8-1-2.8-0.9H0.8V7H4.1L4.1,7z"/>
	</g>
</g>
</svg>
