<svg xmlns="http://www.w3.org/2000/svg" viewBox="0 0 118.781 48.652">
  <defs>
    <style>
      .cls-1 {
        fill: #fff;
        stroke: #fff;
        stroke-width: 0.5px;
      }
    </style>
  </defs>
  <g id="Group_2212" data-name="Group 2212" transform="translate(-111.45 -201.75)">
    <path id="Path_2" data-name="Path 2" class="cls-1" d="M255.667,202.563V249.59h-101.4V202.563h101.4m.563-.563H153.7v48.152H256.23V202Z" transform="translate(-26.249)"/>
    <g id="Group_14" data-name="Group 14" transform="translate(138.701 211.638)">
      <path id="Path_7" data-name="Path 7" class="cls-1" d="M191.238,228.713a3.9,3.9,0,0,1,0,5.7,5.224,5.224,0,0,1-3.413,1.05h-3.3v3.788H183.7V227.7h4.125A5.216,5.216,0,0,1,191.238,228.713Zm-.6,5.175a2.866,2.866,0,0,0,.975-2.325,2.917,2.917,0,0,0-.975-2.325,4.131,4.131,0,0,0-2.813-.825h-3.3v6.263h3.3A3.943,3.943,0,0,0,190.638,233.888Z" transform="translate(-183.7 -227.7)"/>
    </g>
    <g id="Group_15" data-name="Group 15" transform="translate(156.89 211.638)">
      <path id="Path_8" data-name="Path 8" class="cls-1" d="M240.188,238.5v.75H232.2V227.7h7.725v.75h-6.863v4.538h6.15v.75h-6.15v4.725h7.125Z" transform="translate(-232.2 -227.7)"/>
    </g>
    <g id="Group_20" data-name="Group 20" transform="translate(174.703 211.638)">
      <path id="Path_13" data-name="Path 13" class="cls-1" d="M287.688,238.5v.75H279.7V227.7h7.725v.75h-6.863v4.538h6.15v.75h-6.15v4.725h7.125Z" transform="translate(-279.7 -227.7)"/>
    </g>
    <g id="Group_21" data-name="Group 21" transform="translate(192.066 211.638)">
      <path id="Path_14" data-name="Path 14" class="cls-1" d="M333.988,239.251l-2.738-3.863c-.413.038-.788.075-1.125.075h-3.3v3.788H326V227.7h4.125a5.024,5.024,0,0,1,3.413,1.05,3.509,3.509,0,0,1,1.238,2.85,3.548,3.548,0,0,1-.713,2.288,3.6,3.6,0,0,1-1.988,1.313l2.888,4.05Zm-3.9-4.538a4.131,4.131,0,0,0,2.813-.825,3.26,3.26,0,0,0,0-4.65,4.131,4.131,0,0,0-2.813-.825h-3.3v6.263h3.3Z" transform="translate(-326 -227.7)"/>
    </g>
    <g id="Group_22" data-name="Group 22" transform="translate(209.73 211.638)">
      <path id="Path_15" data-name="Path 15" class="cls-1" d="M377.263,228.45H373.1v-.75h9.15v.75h-4.163v10.8h-.825Z" transform="translate(-373.1 -227.7)"/>
    </g>
    <g id="Group_23" data-name="Group 23" transform="translate(137.089 228.889)">
      <path id="Path_16" data-name="Path 16" class="cls-1" d="M182.325,284.651a5.741,5.741,0,0,1-2.925-5.1,5.877,5.877,0,0,1,.788-3,5.744,5.744,0,0,1,2.138-2.1,6.031,6.031,0,0,1,3.075-.75,6.542,6.542,0,0,1,3.075.75,5.477,5.477,0,0,1,2.138,2.1,5.872,5.872,0,0,1-2.138,8.1,6.433,6.433,0,0,1-3.075.75A6.542,6.542,0,0,1,182.325,284.651Zm5.7-.675a4.806,4.806,0,0,0,1.838-1.838,5.125,5.125,0,0,0,.675-2.588,4.931,4.931,0,0,0-.675-2.588,4.806,4.806,0,0,0-1.838-1.838,5.131,5.131,0,0,0-7.8,4.425,4.964,4.964,0,0,0,2.55,4.425,5.442,5.442,0,0,0,5.25,0Z" transform="translate(-179.4 -273.7)"/>
    </g>
    <g id="Group_30" data-name="Group 30" transform="translate(156.515 228.998)">
      <path id="Path_23" data-name="Path 23" class="cls-1" d="M238.738,275.008a3.9,3.9,0,0,1,0,5.7,5.224,5.224,0,0,1-3.413,1.05h-3.3v3.788H231.2V274h4.125A4.829,4.829,0,0,1,238.738,275.008Zm-.6,5.138a2.866,2.866,0,0,0,.975-2.325,2.917,2.917,0,0,0-.975-2.325,4.131,4.131,0,0,0-2.813-.825h-3.3v6.263h3.3A3.943,3.943,0,0,0,238.138,280.146Z" transform="translate(-231.2 -273.993)"/>
    </g>
    <g id="Group_31" data-name="Group 31" transform="translate(174.703 228.964)">
      <path id="Path_24" data-name="Path 24" class="cls-1" d="M287.688,284.7v.75H279.7V273.9h7.725v.75h-6.863v4.538h6.15v.75h-6.15v4.725h7.125Z" transform="translate(-279.7 -273.9)"/>
    </g>
    <g id="Group_32" data-name="Group 32" transform="translate(192.516 228.964)">
      <path id="Path_25" data-name="Path 25" class="cls-1" d="M335.188,284.7v.75H327.2V273.9h7.725v.75h-6.863v4.538h6.15v.75h-6.15v4.725h7.125Z" transform="translate(-327.2 -273.9)"/>
    </g>
    <g id="Group_33" data-name="Group 33" transform="translate(209.88 228.964)">
      <path id="Path_26" data-name="Path 26" class="cls-1" d="M381.488,285.451l-2.738-3.863c-.413.038-.788.075-1.125.075h-3.3v3.788H373.5V273.9h4.125a5.024,5.024,0,0,1,3.413,1.05,3.509,3.509,0,0,1,1.238,2.85,3.548,3.548,0,0,1-.713,2.288,3.6,3.6,0,0,1-1.988,1.313l2.888,4.05Zm-3.9-4.538a4.131,4.131,0,0,0,2.813-.825,3.26,3.26,0,0,0,0-4.65,4.131,4.131,0,0,0-2.813-.825h-3.3v6.263h3.3Z" transform="translate(-373.5 -273.9)"/>
    </g>
    <g id="Group_36" data-name="Group 36" transform="translate(111.7 202)">
      <path id="Path_29" data-name="Path 29" class="cls-1" d="M111.7,316.488v-3.525a5.238,5.238,0,0,1,.563-2.475,4.362,4.362,0,0,1,7.725,0,5.238,5.238,0,0,1,.563,2.475v3.525Zm8.325-3.45a4.536,4.536,0,0,0-.488-2.175,3.647,3.647,0,0,0-1.35-1.463,3.969,3.969,0,0,0-2.025-.525,4.07,4.07,0,0,0-2.025.525,3.194,3.194,0,0,0-1.35,1.463,4.536,4.536,0,0,0-.488,2.175v2.813h7.725Z" transform="translate(-111.7 -268.373)"/>
      <path id="Path_30" data-name="Path 30" class="cls-1" d="M120.688,283.813l-2.963,2.138a7.323,7.323,0,0,1,.075.863v2.55h2.925V290H111.8v-3.188a3.987,3.987,0,0,1,.788-2.625,2.71,2.71,0,0,1,2.213-.938,2.894,2.894,0,0,1,1.763.525,2.793,2.793,0,0,1,1.013,1.538l3.113-2.213Zm-3.488,2.963a3.342,3.342,0,0,0-.638-2.175,2.237,2.237,0,0,0-1.8-.75,2.29,2.29,0,0,0-1.8.75,3.342,3.342,0,0,0-.638,2.175v2.55h4.838v-2.55Z" transform="translate(-111.762 -252.686)"/>
      <path id="Path_31" data-name="Path 31" class="cls-1" d="M120.1,260.775a4.267,4.267,0,0,1-1.613,1.65,4.347,4.347,0,0,1-2.288.6,4.256,4.256,0,0,1-2.288-.6,4.532,4.532,0,0,1-1.613-1.65,4.951,4.951,0,0,1,0-4.725,4.023,4.023,0,0,1,1.613-1.65,4.388,4.388,0,0,1,2.325-.6,4.48,4.48,0,0,1,2.325.6,4.532,4.532,0,0,1,1.613,1.65,5.021,5.021,0,0,1,.6,2.363A6.164,6.164,0,0,1,120.1,260.775Zm-.525-4.388a3.716,3.716,0,0,0-1.425-1.425,4.034,4.034,0,0,0-1.988-.525,3.83,3.83,0,0,0-1.988.525,3.992,3.992,0,0,0-1.425,1.425,4.168,4.168,0,0,0,0,4.05,3.717,3.717,0,0,0,1.425,1.425,4.034,4.034,0,0,0,1.988.525,3.831,3.831,0,0,0,1.988-.525,3.992,3.992,0,0,0,1.425-1.425,4.168,4.168,0,0,0,0-4.05Z" transform="translate(-111.7 -234.374)"/>
      <path id="Path_32" data-name="Path 32" class="cls-1" d="M111.7,227.5h8.925v.525L112.9,234.1h7.725v.638H111.7v-.563l7.725-6.075H111.7Z" transform="translate(-111.7 -217.937)"/>
      <path id="Path_33" data-name="Path 33" class="cls-1" d="M120.025,202h.6v6.15H111.7v-5.963h.6v5.325h3.525V202.75h.563v4.763h3.638Z" transform="translate(-111.7 -202)"/>
    </g>
  </g>
</svg>
