<svg xmlns="http://www.w3.org/2000/svg" viewBox="0 0 81.588 65.626">
  <defs>
    <style>
      .cls-1, .cls-2, .cls-3, .cls-4 {
        fill: none;
        stroke: #fff;
        stroke-linecap: round;
        stroke-miterlimit: 10;
        stroke-width: 1.202px;
      }

      .cls-2 {
        stroke-dasharray: 6.202 6.202;
      }

      .cls-3 {
        stroke-dasharray: 8.336 8.336;
      }

      .cls-4 {
        stroke-dasharray: 6.5;
      }
    </style>
  </defs>
  <g id="Group_43" data-name="Group 43" transform="translate(-865.835 -335.323)">
    <g id="Group_42" data-name="Group 42">
      <g id="Group_41" data-name="Group 41">
        <path id="Path_38" data-name="Path 38" class="cls-1" d="M915,336.2s.2,1.2.4,3.2"/>
        <path id="Path_39" data-name="Path 39" class="cls-2" d="M916,345.6a85.237,85.237,0,0,1-.4,18.1,105.541,105.541,0,0,1-3.6,15.6"/>
        <path id="Path_40" data-name="Path 40" class="cls-1" d="M911.1,382.3c-.6,1.9-1,3.1-1,3.1l3.1.8"/>
        <line id="Line_13" data-name="Line 13" class="cls-3" x2="12.1" y2="3.1" transform="translate(921.3 388.2)"/>
        <line id="Line_14" data-name="Line 14" class="cls-1" x2="3.1" y2="0.8" transform="translate(937.5 392.3)"/>
      </g>
    </g>
    <path id="Path_41" data-name="Path 41" class="cls-1" d="M940.6,393.1s4.1-11.9,5.5-21.6c1.7-12.2-.6-27.5-.6-27.5l-31.3-8-47.3,57.5,26,6.6Z"/>
    <line id="Line_15" data-name="Line 15" class="cls-4" x1="43.2" y2="8.1" transform="translate(866.9 385.4)"/>
    <line id="Line_16" data-name="Line 16" class="cls-1" y1="56.1" x2="52.6" transform="translate(892.9 344)"/>
  </g>
</svg>
