<svg xmlns="http://www.w3.org/2000/svg" viewBox="0 0 68.932 73.396">
  <defs>
    <style>
      .cls-1, .cls-2, .cls-3, .cls-4 {
        fill: none;
        stroke: #fff;
        stroke-linecap: round;
        stroke-miterlimit: 10;
        stroke-width: 1.202px;
      }

      .cls-2 {
        stroke-dasharray: 6.202 6.202;
      }

      .cls-3 {
        stroke-dasharray: 8.336 8.336;
      }

      .cls-4 {
        stroke-dasharray: 6.5;
      }
    </style>
  </defs>
  <g id="Group_40" data-name="Group 40" transform="translate(-646.684 -237.149)">
    <g id="Group_39" data-name="Group 39">
      <g id="Group_38" data-name="Group 38">
        <path id="Path_34" data-name="Path 34" class="cls-1" d="M647.5,277.1s1.1-.5,3-1.2"/>
        <path id="Path_35" data-name="Path 35" class="cls-2" d="M656.3,273.9a92.552,92.552,0,0,1,17.6-4.1,125.549,125.549,0,0,1,16-.4"/>
        <path id="Path_36" data-name="Path 36" class="cls-1" d="M693,269.5c2,.1,3.2.2,3.2.2v-3.2"/>
        <line id="Line_9" data-name="Line 9" class="cls-3" y1="12.5" transform="translate(696.3 245.7)"/>
        <line id="Line_10" data-name="Line 10" class="cls-1" y1="3.2" transform="translate(696.3 238.3)"/>
      </g>
    </g>
    <path id="Path_37" data-name="Path 37" class="cls-1" d="M696.3,238.3s-12.6-1.1-22.3,0c-12.3,1.3-26.5,7.4-26.5,7.4V278l67.4,31.6V282.7Z"/>
    <line id="Line_11" data-name="Line 11" class="cls-4" x2="18.5" y2="39.8" transform="translate(696.3 269.8)"/>
    <line id="Line_12" data-name="Line 12" class="cls-1" x1="67.3" y1="37.1" transform="translate(647.5 245.6)"/>
  </g>
</svg>
