<?xml version="1.0" encoding="utf-8"?>
<!-- Generator: Adobe Illustrator 22.1.0, SVG Export Plug-In . SVG Version: 6.00 Build 0)  -->
<svg version="1.1" id="Layer_1" xmlns="http://www.w3.org/2000/svg" xmlns:xlink="http://www.w3.org/1999/xlink" x="0px" y="0px"
	 viewBox="0 0 262 42" style="enable-background:new 0 0 262 42;" xml:space="preserve">
<style type="text/css">
	.st0{fill:#9F9F9F;}
	.st1{enable-background:new    ;}
</style>
<g id="Group_2202" transform="translate(0.25)">
	<g id="Group_2200" transform="translate(0 3.421)">
		<g id="Group_2195" transform="translate(0 0)">
			<g id="Group_2190" transform="translate(0 0)">
				<g id="Group_2186" transform="translate(1.192 1.072)">
					<g id="Path_1800">
						<path class="st0" d="M40.1,34.7H0l0.1-0.1L20.1,0L40.1,34.7z M0.3,34.5h39.4L20.1,0.4L0.3,34.5z"/>
						<path class="st0" d="M40.5,35h-41l0.3-0.5l20.2-35L40.5,35z M0.8,34.3h38.6L20.1,0.9L0.8,34.3z"/>
					</g>
				</g>
				<g id="Group_2187" transform="translate(38.902 33.855)">
					<g id="Ellipse_441">
						<circle class="st0" cx="1.6" cy="1.6" r="1.4"/>
						<path class="st0" d="M1.6,3.3c-0.1,0-0.2,0-0.3,0C0.9,3.2,0.5,2.9,0.3,2.6C0,2.2-0.1,1.8,0,1.3c0.1-0.4,0.3-0.8,0.7-1.1
							C1,0,1.5-0.1,1.9,0c0.9,0.2,1.5,1,1.3,1.9C3.2,2.3,2.9,2.7,2.6,3C2.3,3.2,2,3.3,1.6,3.3z M1.6,0.5C1.4,0.5,1.2,0.5,1,0.7
							C0.7,0.9,0.5,1.1,0.5,1.4v0C0.4,2,0.8,2.6,1.4,2.8c0.3,0,0.6,0,0.9-0.2s0.4-0.4,0.5-0.7c0.1-0.6-0.3-1.2-0.9-1.3
							C1.7,0.5,1.7,0.5,1.6,0.5z"/>
					</g>
				</g>
				<g id="Group_2188" transform="translate(19.87)">
					<g id="Ellipse_442">
						<circle class="st0" cx="1.4" cy="1.4" r="1.4"/>
						<path class="st0" d="M1.4,3.1c-0.9,0-1.7-0.7-1.7-1.7c0-0.9,0.7-1.7,1.7-1.7s1.7,0.7,1.7,1.7C3.1,2.3,2.3,3.1,1.4,3.1z
							 M1.4,0.2c-0.6,0-1.2,0.5-1.2,1.2s0.5,1.2,1.2,1.2S2.6,2,2.6,1.4S2,0.2,1.4,0.2z"/>
					</g>
				</g>
				<g id="Group_2189" transform="translate(0 34.087)">
					<g id="Ellipse_443">
						<circle class="st0" cx="1.4" cy="1.4" r="1.4"/>
						<path class="st0" d="M1.4,3.1c-0.9,0-1.7-0.7-1.7-1.7s0.7-1.7,1.7-1.7s1.7,0.7,1.7,1.7S2.3,3.1,1.4,3.1z M1.4,0.2
							c-0.6,0-1.2,0.5-1.2,1.2s0.5,1.2,1.2,1.2S2.6,2,2.6,1.4S2,0.2,1.4,0.2z"/>
					</g>
				</g>
			</g>
			<g id="Group_2194" transform="translate(12.277 13.81)">
				<g id="Group_2191" transform="translate(0.491 11.211)">
					<g id="Path_1801">
						<path class="st0" d="M0,4.6h17.3L8.7,0L0,4.6z"/>
					</g>
				</g>
				<g id="Group_2192">
					<g id="Path_1802">
						<path class="st0" d="M8.8,0L0,15.3l8.8-4.6L8.8,0z"/>
					</g>
				</g>
				<g id="Group_2193" transform="translate(9.504 0.018)">
					<g id="Path_1803">
						<path class="st0" d="M8.8,15.2L0,0l0.1,10.5L8.8,15.2z"/>
					</g>
				</g>
			</g>
		</g>
	</g>
	<g class="st1">
		<path class="st0" d="M53.5,11.8V17h-1.1V4.2h4.4c1.3,0,2.4,0.3,3.2,1s1.2,1.6,1.2,2.8c0,1.2-0.4,2.1-1.1,2.8s-1.8,1-3.2,1H53.5z
			 M53.5,10.9h3.3c1,0,1.8-0.2,2.4-0.7S60,8.9,60,8c0-0.9-0.3-1.6-0.8-2.1s-1.3-0.8-2.3-0.8h-3.3V10.9z"/>
		<path class="st0" d="M73.3,11.3c0,1.2-0.2,2.2-0.6,3.1s-1,1.6-1.7,2.1s-1.6,0.7-2.6,0.7c-1.5,0-2.7-0.5-3.6-1.6s-1.4-2.5-1.4-4.3
			V9.9c0-1.2,0.2-2.2,0.6-3.1c0.4-0.9,1-1.6,1.8-2.1C66.4,4.3,67.3,4,68.3,4s1.9,0.2,2.6,0.7s1.3,1.1,1.7,2s0.6,1.9,0.6,3V11.3z
			 M72.2,9.9c0-1.5-0.3-2.7-1-3.6S69.5,5,68.3,5c-1.2,0-2.1,0.4-2.8,1.3s-1.1,2.1-1.1,3.7v1.3c0,1.5,0.4,2.7,1.1,3.6
			c0.7,0.9,1.7,1.3,2.9,1.3c1.2,0,2.2-0.4,2.9-1.3s1-2.1,1-3.7V9.9z"/>
		<path class="st0" d="M78.7,13.5l0.4,2l0.5-1.9l2.8-9.4h1l2.7,9.4l0.5,1.9l0.4-2l2.3-9.3h1.1L87.1,17h-1L83.2,7l-0.3-1.3L82.6,7
			l-3,10h-1L75.3,4.2h1.1L78.7,13.5z"/>
		<path class="st0" d="M99.9,10.9h-6v5.2h6.9V17h-8V4.2h7.9v0.9h-6.8V10h6V10.9z"/>
		<path class="st0" d="M108.2,11.7h-3.7V17h-1.1V4.2h4.2c1.4,0,2.4,0.3,3.2,1s1.2,1.6,1.2,2.8c0,0.8-0.2,1.5-0.7,2.2
			s-1.1,1.1-1.9,1.3l3.2,5.4V17h-1.2L108.2,11.7z M104.5,10.8h3.3c0.9,0,1.6-0.3,2.2-0.8s0.8-1.2,0.8-2c0-0.9-0.3-1.6-0.9-2.1
			c-0.6-0.5-1.4-0.7-2.4-0.7h-3V10.8z"/>
		<path class="st0" d="M122.3,10.9h-6v5.2h6.9V17h-8V4.2h7.9v0.9h-6.8V10h6V10.9z"/>
		<path class="st0" d="M125.8,17V4.2h3.6c1,0,2,0.2,2.8,0.7s1.5,1.2,1.9,2.1s0.7,1.9,0.7,3v1.2c0,1.1-0.2,2.2-0.7,3s-1.1,1.6-2,2
			c-0.8,0.5-1.8,0.7-2.9,0.7H125.8z M126.9,5.1v11h2.4c1.3,0,2.4-0.4,3.2-1.3c0.8-0.9,1.2-2.1,1.2-3.6V10c0-1.5-0.4-2.7-1.2-3.5
			s-1.9-1.3-3.2-1.3H126.9z"/>
		<path class="st0" d="M142.6,17V4.2h3.8c1.4,0,2.4,0.3,3.1,0.8s1.1,1.4,1.1,2.5c0,0.7-0.2,1.2-0.5,1.7c-0.4,0.5-0.9,0.8-1.5,1.1
			c0.7,0.2,1.3,0.5,1.8,1.1c0.5,0.6,0.7,1.2,0.7,2c0,1.1-0.4,2-1.1,2.6c-0.7,0.6-1.7,1-3,1H142.6z M143.7,9.9h3
			c0.9,0,1.6-0.2,2.1-0.6c0.5-0.4,0.7-1,0.7-1.8c0-0.8-0.3-1.4-0.8-1.8c-0.5-0.4-1.3-0.6-2.3-0.6h-2.7V9.9z M143.7,10.9v5.2h3.2
			c0.9,0,1.7-0.2,2.2-0.7s0.8-1.1,0.8-2c0-0.8-0.3-1.4-0.8-1.9c-0.5-0.5-1.2-0.7-2.1-0.7H143.7z"/>
		<path class="st0" d="M157.3,11.2l3.9-7h1.2l-4.6,8V17h-1.1v-4.8l-4.6-8h1.3L157.3,11.2z"/>
	</g>
	<g class="st1">
		<path class="st0" d="M57.2,32.7h-3.7V38h-1.1V25.2h4.2c1.4,0,2.4,0.3,3.2,1s1.2,1.6,1.2,2.8c0,0.8-0.2,1.5-0.7,2.2
			s-1.1,1.1-1.9,1.3l3.2,5.4V38h-1.2L57.2,32.7z M53.5,31.8h3.3c0.9,0,1.6-0.3,2.2-0.8s0.8-1.2,0.8-2c0-0.9-0.3-1.6-0.9-2.1
			c-0.6-0.5-1.4-0.7-2.4-0.7h-3V31.8z"/>
		<path class="st0" d="M73.6,32.3c0,1.2-0.2,2.2-0.6,3.1s-1,1.6-1.7,2.1s-1.6,0.7-2.6,0.7c-1.5,0-2.7-0.5-3.6-1.6s-1.4-2.5-1.4-4.3
			v-1.3c0-1.2,0.2-2.2,0.6-3.1c0.4-0.9,1-1.6,1.8-2.1c0.8-0.5,1.6-0.7,2.6-0.7s1.9,0.2,2.6,0.7s1.3,1.1,1.7,2s0.6,1.9,0.6,3V32.3z
			 M72.6,30.9c0-1.5-0.3-2.7-1-3.6S69.9,26,68.6,26c-1.2,0-2.1,0.4-2.8,1.3s-1.1,2.1-1.1,3.7v1.3c0,1.5,0.4,2.7,1.1,3.6
			c0.7,0.9,1.7,1.3,2.9,1.3c1.2,0,2.2-0.4,2.9-1.3s1-2.1,1-3.7V30.9z"/>
		<path class="st0" d="M76.7,38V25.2h3.8c1.4,0,2.4,0.3,3.1,0.8s1.1,1.4,1.1,2.5c0,0.7-0.2,1.2-0.5,1.7c-0.4,0.5-0.9,0.8-1.5,1.1
			c0.7,0.2,1.3,0.5,1.8,1.1c0.5,0.6,0.7,1.2,0.7,2c0,1.1-0.4,2-1.1,2.6c-0.7,0.6-1.7,1-3,1H76.7z M77.8,30.9h3
			c0.9,0,1.6-0.2,2.1-0.6c0.5-0.4,0.7-1,0.7-1.8c0-0.8-0.3-1.4-0.8-1.8c-0.5-0.4-1.3-0.6-2.3-0.6h-2.7V30.9z M77.8,31.9v5.2H81
			c0.9,0,1.7-0.2,2.2-0.7s0.8-1.1,0.8-2c0-0.8-0.3-1.4-0.8-1.9c-0.5-0.5-1.2-0.7-2.1-0.7H77.8z"/>
		<path class="st0" d="M97.5,32.3c0,1.2-0.2,2.2-0.6,3.1s-1,1.6-1.7,2.1s-1.6,0.7-2.6,0.7c-1.5,0-2.7-0.5-3.6-1.6s-1.4-2.5-1.4-4.3
			v-1.3c0-1.2,0.2-2.2,0.6-3.1c0.4-0.9,1-1.6,1.8-2.1c0.8-0.5,1.6-0.7,2.6-0.7s1.9,0.2,2.6,0.7s1.3,1.1,1.7,2s0.6,1.9,0.6,3V32.3z
			 M96.5,30.9c0-1.5-0.3-2.7-1-3.6S93.8,26,92.5,26c-1.2,0-2.1,0.4-2.8,1.3s-1.1,2.1-1.1,3.7v1.3c0,1.5,0.4,2.7,1.1,3.6
			c0.7,0.9,1.7,1.3,2.9,1.3c1.2,0,2.2-0.4,2.9-1.3s1-2.1,1-3.7V30.9z"/>
		<path class="st0" d="M110.1,38H109l-7.4-11v11h-1.1V25.2h1.1l7.4,11v-11h1.1V38z"/>
		<path class="st0" d="M123.2,32.3c0,1.2-0.2,2.2-0.6,3.1s-1,1.6-1.7,2.1s-1.6,0.7-2.6,0.7c-1.5,0-2.7-0.5-3.6-1.6s-1.4-2.5-1.4-4.3
			v-1.3c0-1.2,0.2-2.2,0.6-3.1c0.4-0.9,1-1.6,1.8-2.1c0.8-0.5,1.6-0.7,2.6-0.7s1.9,0.2,2.6,0.7s1.3,1.1,1.7,2s0.6,1.9,0.6,3V32.3z
			 M122.1,30.9c0-1.5-0.3-2.7-1-3.6s-1.7-1.3-2.9-1.3c-1.2,0-2.1,0.4-2.8,1.3s-1.1,2.1-1.1,3.7v1.3c0,1.5,0.4,2.7,1.1,3.6
			c0.7,0.9,1.7,1.3,2.9,1.3c1.2,0,2.2-0.4,2.9-1.3s1-2.1,1-3.7V30.9z"/>
		<path class="st0" d="M127.7,25.2l4.7,11.3l4.7-11.3h1.4V38h-1.1v-5.6l0.1-5.7L132.8,38H132l-4.7-11.2l0.1,5.6V38h-1.1V25.2H127.7z
			"/>
		<path class="st0" d="M143.5,38h-1.1V25.2h1.1V38z"/>
		<path class="st0" d="M156.4,34c-0.1,1.3-0.6,2.4-1.4,3.1s-1.9,1.1-3.3,1.1c-0.9,0-1.8-0.2-2.5-0.7s-1.3-1.1-1.7-2
			c-0.4-0.9-0.6-1.9-0.6-3v-1.7c0-1.1,0.2-2.1,0.6-3s1-1.6,1.7-2s1.6-0.7,2.6-0.7c1.4,0,2.5,0.4,3.2,1.1s1.3,1.8,1.4,3.1h-1.1
			c-0.3-2.2-1.5-3.3-3.5-3.3c-1.2,0-2.1,0.4-2.8,1.3s-1,2.1-1,3.6v1.6c0,1.5,0.3,2.7,1,3.5s1.6,1.3,2.7,1.3c1.1,0,2-0.3,2.6-0.8
			s0.9-1.4,1.1-2.4H156.4z"/>
		<path class="st0" d="M166.6,34.9c0-0.7-0.2-1.3-0.7-1.7c-0.5-0.4-1.4-0.8-2.7-1.2c-1.3-0.4-2.3-0.8-2.9-1.2
			c-0.9-0.6-1.3-1.4-1.3-2.4c0-1,0.4-1.8,1.2-2.4c0.8-0.6,1.8-0.9,3.1-0.9c0.8,0,1.6,0.2,2.3,0.5s1.2,0.8,1.6,1.4s0.6,1.2,0.6,2
			h-1.1c0-0.9-0.3-1.6-0.9-2.1s-1.4-0.8-2.4-0.8c-1,0-1.8,0.2-2.3,0.7c-0.6,0.4-0.9,1-0.9,1.7c0,0.7,0.3,1.2,0.8,1.6
			c0.5,0.4,1.4,0.8,2.5,1.1c1.1,0.3,2,0.6,2.6,1s1,0.7,1.3,1.2s0.4,1,0.4,1.7c0,1-0.4,1.8-1.2,2.4s-1.9,0.9-3.2,0.9
			c-0.9,0-1.7-0.2-2.5-0.5s-1.3-0.8-1.7-1.4s-0.6-1.2-0.6-2h1.1c0,0.9,0.3,1.6,1,2.1s1.6,0.8,2.7,0.8c1,0,1.8-0.2,2.4-0.7
			S166.6,35.6,166.6,34.9z"/>
		<path class="st0" d="M170,37.4c0-0.2,0.1-0.4,0.2-0.5c0.1-0.1,0.3-0.2,0.5-0.2s0.4,0.1,0.6,0.2c0.1,0.1,0.2,0.3,0.2,0.5
			s-0.1,0.4-0.2,0.5c-0.1,0.1-0.3,0.2-0.6,0.2s-0.4-0.1-0.5-0.2C170.1,37.7,170,37.6,170,37.4z"/>
		<path class="st0" d="M184.5,38h-1.1l-7.4-11v11H175V25.2h1.1l7.4,11v-11h1.1V38z"/>
		<path class="st0" d="M195.2,31.9h-6v5.2h6.9V38h-8V25.2h7.9v0.9h-6.8V31h6V31.9z"/>
		<path class="st0" d="M207.5,26.1h-4.4V38h-1.1V26.1h-4.4v-0.9h9.8V26.1z"/>
		<path class="st0" d="M212.4,34.5l0.4,2l0.5-1.9l2.8-9.4h1l2.7,9.4l0.5,1.9l0.4-2l2.3-9.3h1.1L220.8,38h-1l-2.9-10l-0.3-1.3
			l-0.3,1.3l-3,10h-1L209,25.2h1.1L212.4,34.5z"/>
		<path class="st0" d="M236,32.3c0,1.2-0.2,2.2-0.6,3.1s-1,1.6-1.7,2.1s-1.6,0.7-2.6,0.7c-1.5,0-2.7-0.5-3.6-1.6s-1.4-2.5-1.4-4.3
			v-1.3c0-1.2,0.2-2.2,0.6-3.1c0.4-0.9,1-1.6,1.8-2.1c0.8-0.5,1.6-0.7,2.6-0.7s1.9,0.2,2.6,0.7s1.3,1.1,1.7,2s0.6,1.9,0.6,3V32.3z
			 M234.9,30.9c0-1.5-0.3-2.7-1-3.6S232.2,26,231,26c-1.2,0-2.1,0.4-2.8,1.3s-1.1,2.1-1.1,3.7v1.3c0,1.5,0.4,2.7,1.1,3.6
			c0.7,0.9,1.7,1.3,2.9,1.3c1.2,0,2.2-0.4,2.9-1.3s1-2.1,1-3.7V30.9z"/>
		<path class="st0" d="M243.9,32.7h-3.7V38H239V25.2h4.2c1.4,0,2.4,0.3,3.2,1s1.2,1.6,1.2,2.8c0,0.8-0.2,1.5-0.7,2.2
			s-1.1,1.1-1.9,1.3l3.2,5.4V38h-1.2L243.9,32.7z M240.1,31.8h3.3c0.9,0,1.6-0.3,2.2-0.8s0.8-1.2,0.8-2c0-0.9-0.3-1.6-0.9-2.1
			c-0.6-0.5-1.4-0.7-2.4-0.7h-3V31.8z"/>
		<path class="st0" d="M253.7,31.6l-1.8,1.8V38h-1.1V25.2h1.1v6.9l6.6-6.9h1.4l-5.4,5.7l5.8,7.1h-1.3L253.7,31.6z"/>
	</g>
</g>
</svg>
